<?xml version="1.0" encoding="UTF-8" standalone="no"?>
<svg
        xmlns="http://www.w3.org/2000/svg"
        id="svg1978"
        width="385.888"
        height="385.887"
        version="1.1"
        viewBox="0 0 385.888 385.887"
      >
        <defs id="defs1972">
          <filter id="filter1508" colorInterpolationFilters="sRGB">
            <feColorMatrix
              id="feColorMatrix1506"
              values="-1.91919 -0.37037 0.16835 0.10101 0 -1.91919 -0.37037 0.16835 0.10101 0 -1.91919 -0.37037 0.16835 0.10101 0 0 0 0 1 0"
            ></feColorMatrix>
          </filter>
        </defs>
        <g
          id="layer2"
          display="inline"
          transform="translate(-1013.904 -342.036)"
        >
          <path
            id="flameTwo"
            
            fill="#fff"
            fillOpacity="1"
            stroke="none"
            pathLength='1'
            strokeLinecap="square"
            strokeLinejoin="round"
            strokeWidth="0"
            d="M1172.802 465.06c-.035.036-.07.067-.101.104-1.264 5.427-.106 11.139 4.513 16.669 6.05 7.244 13.622 11.245 19.027 16.93h13.216c-5.2-4.773-12.707-10.957-21.608-16.45-2.272-1.403-12.732-8.707-14.734-15.484-.16-.537-.254-1.139-.312-1.769z"
            paintOrder="markers stroke fill"
            stopColor="#000"
          ></path>
          <path
            id="flameOne"
            
            fill="#d30923"
            fillOpacity="1"
            pathLength='1'
            stroke="none"
            strokeLinecap="square"
            strokeLinejoin="round"
            strokeWidth="0"
            d="M1174.662 443.363c-12.067 2.114-24.683 19.769-24.682 29.436 0 9.186 4.873 19.16 11.778 25.964h27.988c-7.94-5.753-28.573-17.935-28.684-30.134-.093-10.237 6.694-19.88 13.6-25.266z"
            paintOrder="markers stroke fill"
            stopColor="#000"
          ></path>
          <path
            id="flameThree"
            
            fill="#d30923"
            pathLength='1'
            fillOpacity="1"
            stroke="none"
            strokeLinecap="square"
            strokeLinejoin="round"
            strokeWidth="0"
            d="M1181.544 350.787c-18.89 7.012-33.696 25.123-33.696 45.566 0 26.248 27.474 42.048 47.621 58.675 12.334 10.179 17.738 12.378 25.63 24.654 5.317 8.274 6.75 15.965 7.456 19.08h22.993c3.144-7.205 5.287-13.489 4.417-34.923-.891-21.943-20.186-38.355-51.032-55.99-11.394-6.514-17.24-10.014-25.104-24.338-.01-.011-.01-.025-.015-.036.062 4.561 1.895 21.39 17.094 31.995 8.444 5.892 22.153 15.198 30.283 23.787 8.13 8.589 7.853 12.017 7.88 13.664-7.527-9.993-12.41-13.108-21.275-18.775-16.76-10.714-50.228-25.45-51.278-47.227-.496-10.285 7.666-25.773 19.028-36.132z"
            paintOrder="markers stroke fill"
            stopColor="#000"
          ></path>
          <path
            id="trophyT"
            fill="#fff"
            pathLength='1'
            stroke="none"
            strokeLinecap="square"
            strokeLinejoin="round"
            strokeWidth="0"
            d="M1136.584 504.831l6.211 9.008 4.425 6.418 1.34 1.943h40.252l18.036 26.137 18.034-26.137h40.252l1.34-1.943 4.426-6.418 6.21-9.008z"
            paintOrder="markers stroke fill"
            stopColor="#000"
          ></path>
          <path
            id="trophyM"
            pathLength='1'
            fill="#d30923"
            fillOpacity="1"
            stroke="none"
            strokeLinecap="square"
            strokeLinejoin="round"
            strokeWidth="0"
            d="M1256.336 534.98V596.198l-17.497 25.358-12.294 17.818v-35.86l12.294-17.82v-25.357l-31.992 46.365-31.991-46.365v25.358l12.295 17.818v35.861l-12.295-17.818-17.497-25.358V534.98h24.744l24.744 35.86 24.744-35.86z"
            paintOrder="markers stroke fill"
            stopColor="#000"
          ></path>
          <path
            id="path1058"
            fill="none"
            stroke="none"
            strokeLinecap="square"
            strokeLinejoin="round"
            strokeWidth="0"
            d="M1206.848 400.206c-.316 0-.63.01-.944.011.83.478 1.631.94 2.553 1.467 7.693 4.399 14.83 8.808 21.241 13.338 56.556 10.68 99.243 60.264 99.243 119.957 0 64.49-49.82 117.187-113.128 121.767V619.09l-8.965 12.993-8.966-12.994v37.658c-63.308-4.58-113.13-57.276-113.13-121.767 0-47.626 27.174-88.818 66.883-108.952-2.604-3.381-4.868-6.961-6.646-10.78-43.29 22.44-72.915 67.665-72.915 119.732 0 74.358 60.416 134.774 134.774 134.774s134.772-60.416 134.772-134.774-60.414-134.773-134.772-134.773z"
            paintOrder="markers stroke fill"
            stopColor="#000"
          ></path>
          <path
            id="path876"
            fill="none"
            stroke="none"
            strokeLinecap="square"
            strokeWidth="1"
            d="M183.979 277.053v37.654a122.094 122.094 0 0017.931 0v-37.654l-8.967 12.994z"
            opacity="0.652"
            paintOrder="markers stroke fill"
            stopColor="#000"
            transform="translate(1013.904 342.036)"
          ></path>
          <path
            id="circle"
            fill="#fff"
            stroke="none"
            strokeLinecap="square"
            strokeLinejoin="round"
            pathLength='1'
            strokeWidth="0"
            d="M1206.848 400.206c-.316 0-.63.01-.944.011.83.478 1.631.94 2.553 1.467 7.693 4.399 14.83 8.808 21.241 13.338 56.556 10.68 99.243 60.264 99.243 119.957 0 64.49-49.82 117.187-113.128 121.767V619.09l-8.965 12.993-8.966-12.994v37.658c-63.308-4.58-113.13-57.276-113.13-121.767 0-47.626 27.174-88.818 66.883-108.952-2.604-3.381-4.868-6.961-6.646-10.78-43.29 22.44-72.915 67.665-72.915 119.732 0 74.358 60.416 134.774 134.774 134.774s134.772-60.416 134.772-134.774-60.414-134.773-134.772-134.773z"
            paintOrder="markers stroke fill"
            stopColor="#000"
          ></path>
        </g>
      </svg>
