<?xml version="1.0" encoding="UTF-8" standalone="no"?>
<svg
        xmlns="http://www.w3.org/2000/svg"
        id="svg1978"
        width="385.888"
        height="385.887"
        version="1.1"
        viewBox="0 0 385.888 385.887"
      >
        <defs id="defs1972">
          <filter id="filter1508" colorInterpolationFilters="sRGB">
            <feColorMatrix
              id="feColorMatrix1506"
              values="-1.91919 -0.37037 0.16835 0.10101 0 -1.91919 -0.37037 0.16835 0.10101 0 -1.91919 -0.37037 0.16835 0.10101 0 0 0 0 1 0"
            ></feColorMatrix>
          </filter>
        </defs>
        <g
          id="layer2"
          display="inline"
          transform="translate(-1013.904 -342.036)"
        >
          <path
            id="flameTwo"
            
            fill="#fff"
            fillOpacity="1"
            stroke="none"
            pathLength='1'
            strokeLinecap="square"
            strokeLinejoin="round"
            strokeWidth="0"
            d="M1172.802 465.06c-.035.036-.07.067-.101.104-1.264 5.427-.106 11.139 4.513 16.669 6.05 7.244 13.622 11.245 19.027 16.93h13.216c-5.2-4.773-12.707-10.957-21.608-16.45-2.272-1.403-12.732-8.707-14.734-15.484-.16-.537-.254-1.139-.312-1.769z"
            paintOrder="markers stroke fill"
            stopColor="#000"
          ></path>
          <path
            id="flameOne"
            
            fill="#d30923"
            fillOpacity="1"
            pathLength='1'
            stroke="none"
            strokeLinecap="square"
            strokeLinejoin="round"
            strokeWidth="0"
            d="M1174.662 443.363c-12.067 2.114-24.683 19.769-24.682 29.436 0 9.186 4.873 19.16 11.778 25.964h27.988c-7.94-5.753-28.573-17.935-28.684-30.134-.093-10.237 6.694-19.88 13.6-25.266z"
            paintOrder="markers stroke fill"
            stopColor="#000"
          ></path>
          <path
            id="flameThree"
            
            fill="#d30923"
            pathLength='1'
            fillOpacity="1"
            stroke="none"
            strokeLinecap="square"
            strokeLinejoin="round"
            strokeWidth="0"
            d="M1181.544 350.787c-18.89 7.012-33.696 25.123-33.696 45.566 0 26.248 27.474 42.048 47.621 58.675 12.334 10.179 17.738 12.378 25.63 24.654 5.317 8.274 6.75 15.965 7.456 19.08h22.993c3.144-7.205 5.287-13.489 4.417-34.923-.891-21.943-20.186-38.355-51.032-55.99-11.394-6.514-17.24-10.014-25.104-24.338-.01-.011-.01-.025-.015-.036.062 4.561 1.895 21.39 17.094 31.995 8.444 5.892 22.153 15.198 30.283 23.787 8.13 8.589 7.853 12.017 7.88 13.664-7.527-9.993-12.41-13.108-21.275-18.775-16.76-10.714-50.228-25.45-51.278-47.227-.496-10.285 7.666-25.773 19.028-36.132z"
            paintOrder="markers stroke fill"
            stopColor="#000"
          ></path>
          <path
            id="trophyT"
            fill="#fff"
            pathLength='1'
            stroke="none"
            strokeLinecap="square"
            strokeLinejoin="round"
            strokeWidth="0"
            d="M1136.584 504.831l6.211 9.008 4.425 6.418 1.34 1.943h40.252l18.036 26.137 18.034-26.137h40.252l1.34-1.943 4.426-6.418 6.21-9.008z"
            paintOrder="markers stroke fill"
            stopColor="#000"
          ></path>
          <path
            id="trophyM"
            pathLength='1'
            fill="#d30923"
            fillOpacity="1"
            stroke="none"
            strokeLinecap="square"
            strokeLinejoin="round"
            strokeWidth="0"
            d="M1256.336 534.98V596.198l-17.497 25.358-12.294 17.818v-35.86l12.294-17.82v-25.357l-31.992 46.365-31.991-46.365v25.358l12.295 17.818v35.861l-12.295-17.818-17.497-25.358V534.98h24.744l24.744 35.86 24.744-35.86z"
            paintOrder="markers stroke fill"
            stopColor="#000"
          ></path>
          <path
            id="path1058"
            fill="none"
            stroke="none"
            strokeLinecap="square"
            strokeLinejoin="round"
            strokeWidth="0"
            d="M1206.848 400.206c-.316 0-.63.01-.944.011.83.478 1.631.94 2.553 1.467 7.693 4.399 14.83 8.808 21.241 13.338 56.556 10.68 99.243 60.264 99.243 119.957 0 64.49-49.82 117.187-113.128 121.767V619.09l-8.965 12.993-8.966-12.994v37.658c-63.308-4.58-113.13-57.276-113.13-121.767 0-47.626 27.174-88.818 66.883-108.952-2.604-3.381-4.868-6.961-6.646-10.78-43.29 22.44-72.915 67.665-72.915 119.732 0 74.358 60.416 134.774 134.774 134.774s134.772-60.416 134.772-134.774-60.414-134.773-134.772-134.773z"
            paintOrder="markers stroke fill"
            stopColor="#000"
          ></path>
          <path
            d="M1069.608 655.662l-5.033-5.225q-.642-.666-.665-1.252.046-.584.712-1.226l22.722-21.886q.667-.642 1.218-.632.619.012 1.26.678l5.439 5.646q.54.56.632 1.148.126.622-.13 1.478l-2.677 8.661q-.147.48-.186.72-.01.275.198.486l.304.315q.203.21.444.18.276.006.76-.123l8.722-2.384q.865-.225 1.448-.11.617.149 1.158.71l5.47 5.68q.643.667.597 1.251.025.586-.642 1.228l-22.723 21.886q-.667.642-1.286.63-.55-.01-1.193-.677l-5.201-5.4q-.642-.666-.665-1.252.046-.584.712-1.226l12.343-11.889-5.815 1.613q-.9.258-1.62.073-.65-.185-1.293-.851l-1.35-1.403q-.642-.666-.836-1.358-.125-.691.168-1.581l1.83-5.75-12.344 11.888q-.667.642-1.286.63-.55-.01-1.192-.676z"

            id="textM"
            fill="#d30923"
            fillOpacity="1"
            strokeWidth="0.532"
            fontFamily="Bungee"
            fontSize="96"
            fontStretch="normal"
            fontStyle="normal"
            fontVariant="normal"
            fontWeight="normal"
            letterSpacing="15"
          ></path>
          <path
            d="M1113.986 692.218l-6.702-4.158q-.786-.487-.953-1.05-.1-.577.388-1.363l3.284-5.296-1.068-12.408q-.156-1.873.104-3.03.3-1.13 1.481-3.034l4.928-7.943q.488-.786 1.024-.912.603-.141 1.39.346l6.37 3.953q.787.487.887 1.065.166.562-.32 1.348l-4.21 6.785q-.257.414-.498.895-.24.48-.208 1.074l.055 4.16q-.025.5.08.794.146.32.477.525l.414.256q.33.206.64.168.351-.011.79-.255l3.75-1.798q.546-.234.87-.664.324-.43.58-.843l4.21-6.785q.487-.786 1.024-.912.603-.141 1.389.347l6.164 3.824q.786.487.886 1.065.168.562-.32 1.348l-4.928 7.944q-1.18 1.903-2.102 2.649-.921.746-2.627 1.464l-11.576 4.622-3.26 5.254q-.487.786-1.09.927-.537.126-1.323-.362z"

            id="textY"
            fill="#d30923"
            fillOpacity="1"
            strokeWidth="0.532"
            fontFamily="Bungee"
            fontSize="96"
            fontStretch="normal"
            fontStyle="normal"
            fontVariant="normal"
            fontWeight="normal"
            letterSpacing="15"
          ></path>
          <path
            d="M1151.059 708.868l-7.455-2.577q-.874-.302-1.161-.814-.225-.54.078-1.415l7.81-22.594-6.765-2.338q-.874-.302-1.16-.813-.226-.542.076-1.416l1.925-5.568q.302-.874.798-1.115.557-.27 1.432.031l24.295 8.399q.875.302 1.1.843.286.512-.015 1.386l-1.925 5.568q-.302.874-.86 1.145-.495.24-1.37-.061l-6.763-2.339-7.81 22.594q-.303.874-.86 1.145-.495.24-1.37-.061z"

            id="textT"
            fill="#f9f9f9"
            strokeWidth="0.532"
            fontFamily="Bungee"
            fontSize="96"
            fontStretch="normal"
            fontStyle="normal"
            fontVariant="normal"
            fontWeight="normal"
            letterSpacing="15"
          ></path>
          <path
            d="M1203.54 708.981q-.237 2.227-1.111 3.995-.82 1.724-2.654 2.85-1.78 1.084-4.81 1.496-2.982.417-7.485-.063-4.502-.479-7.378-1.52-2.876-1.04-4.437-2.48-1.506-1.482-1.993-3.345-.434-1.907-.197-4.134l1.758-16.509q.237-2.227 1.057-3.951.874-1.768 2.66-2.9 1.833-1.126 4.863-1.538 3.03-.412 7.533.068t7.33 1.515q2.876 1.04 4.383 2.523 1.555 1.487 1.988 3.394.488 1.863.25 4.09zm-18.89-3.774q-.103.969.552 1.724.659.706 3.273.985 2.615.278 3.408-.274.798-.6.9-1.569l1.388-13.023q.098-.92-.561-1.626-.655-.755-3.269-1.034-2.614-.278-3.413.322-.793.552-.89 1.472z"

            id="textO"
            fill="#f9f9f9"
            strokeWidth="0.532"
            fontFamily="Bungee"
            fontSize="96"
            fontStretch="normal"
            fontStyle="normal"
            fontVariant="normal"
            fontWeight="normal"
            letterSpacing="15"
          ></path>
          <path
            d="M1244.82 704.816q.298 2.22-.132 4.144-.387 1.87-1.902 3.4-1.472 1.474-4.27 2.586-2.798 1.112-7.286 1.714-4.487.602-7.48.267-2.992-.335-4.85-1.363-1.815-1.083-2.73-2.778-.873-1.75-1.17-3.97l-3.205-23.885q-.123-.917.211-1.355.376-.492 1.293-.615l7.576-1.017q.917-.123 1.361.26.486.328.61 1.245l2.951 22.003q.13.966.944 1.544.808.53 3.317.194 2.558-.343 3.197-1.068.633-.773.504-1.738l-2.952-22.004q-.123-.916.211-1.354.376-.493 1.293-.616l7.335-.984q.917-.123 1.36.26.487.328.61 1.244z"

            id="textU"
            fill="#f9f9f9"
            strokeWidth="0.532"
            fontFamily="Bungee"
            fontSize="96"
            fontStretch="normal"
            fontStyle="normal"
            fontVariant="normal"
            fontWeight="normal"
            letterSpacing="15"
          ></path>
          <path
            d="M1260.424 681.848l2.274 5.803 3.4-1.333q1.178-.462 1.355-1.21.16-.795-.196-1.702l-.604-1.541q-.355-.907-.994-1.336-.657-.475-1.836-.013zm7.961 25.118l-6.98 2.736q-.862.337-1.412.135-.523-.266-.86-1.128l-11.512-29.373q-.338-.861-.117-1.366.248-.568 1.11-.906l15.094-5.915q5.077-1.99 7.816-.606 2.766 1.322 4.08 4.676l.818 2.085q.746 1.904.69 3.495-.03 1.528-1.203 2.668 2.554-.688 4.725.448 2.216 1.119 3.336 3.975l3.766 9.61q.337.86.089 1.429-.22.505-1.082.842l-7.026 2.754q-.861.337-1.411.134-.523-.265-.86-1.127l-2.718-6.935q-.391-.997-.977-1.29-.558-.357-1.51.016l-6.346 2.487 3.482 8.885q.338.86.09 1.429-.22.504-1.082.842z"

            id="textR"
            fill="#f9f9f9"
            strokeWidth="0.532"
            fontFamily="Bungee"
            fontSize="96"
            fontStretch="normal"
            fontStyle="normal"
            fontVariant="normal"
            fontWeight="normal"
            letterSpacing="15"
          ></path>
          <path
            d="M1307.317 687.55l-5.966 4.213q-.756.533-1.339.467-.57-.133-1.104-.889l-18.194-25.774q-.533-.755-.44-1.298.106-.611.861-1.144l4.137-2.92q.756-.534 1.441-.66.725-.155 1.663.077l13.95 3.383-5.98-8.472q-.534-.756-.44-1.299.105-.61.86-1.144l5.967-4.211q.756-.534 1.327-.4.582.065 1.116.82l18.194 25.775q.534.756.428 1.366-.093.543-.849 1.077l-5.967 4.211q-.755.534-1.338.468-.57-.133-1.104-.889l-3.454-4.892-12.613-3.433 9.266 13.126q.533.756.428 1.367-.094.542-.85 1.076z"

            id="textN"
            fill="#f9f9f9"
            strokeWidth="0.532"
            fontFamily="Bungee"
            fontSize="96"
            fontStretch="normal"
            fontStyle="normal"
            fontVariant="normal"
            fontWeight="normal"
            letterSpacing="15"
          ></path>
          <path
            d="M1335.54 664.92q-.62.687-1.202.752-.587-.004-1.274-.623l-4.304-3.879q-.687-.619-.716-1.169-.03-.619.587-1.306l3.227-3.58-12.153-10.951-3.227 3.58q-.619.688-1.202.753-.586-.004-1.273-.624l-4.376-3.943q-.688-.62-.716-1.17-.03-.618.586-1.305l13.884-15.409q.62-.687 1.206-.683.582-.065 1.27.555l4.376 3.943q.687.62.72 1.238.03.55-.591 1.237l-3.162 3.509 12.153 10.95 3.162-3.508q.62-.688 1.205-.684.583-.064 1.27.555l4.305 3.878q.687.62.719 1.238.03.55-.59 1.238z"

            id="textI"
            fill="#f9f9f9"
            strokeWidth="0.532"
            fontFamily="Bungee"
            fontSize="96"
            fontStretch="normal"
            fontStyle="normal"
            fontVariant="normal"
            fontWeight="normal"
            letterSpacing="15"
          ></path>
          <path
            id="path876"
            fill="none"
            stroke="none"
            strokeLinecap="square"
            strokeWidth="1"
            d="M183.979 277.053v37.654a122.094 122.094 0 0017.931 0v-37.654l-8.967 12.994z"
            opacity="0.652"
            paintOrder="markers stroke fill"
            stopColor="#000"
            transform="translate(1013.904 342.036)"
          ></path>
          <path
            id="circle"
            fill="#fff"
            stroke="none"
            strokeLinecap="square"
            strokeLinejoin="round"
            pathLength='1'
            strokeWidth="0"
            d="M1206.848 400.206c-.316 0-.63.01-.944.011.83.478 1.631.94 2.553 1.467 7.693 4.399 14.83 8.808 21.241 13.338 56.556 10.68 99.243 60.264 99.243 119.957 0 64.49-49.82 117.187-113.128 121.767V619.09l-8.965 12.993-8.966-12.994v37.658c-63.308-4.58-113.13-57.276-113.13-121.767 0-47.626 27.174-88.818 66.883-108.952-2.604-3.381-4.868-6.961-6.646-10.78-43.29 22.44-72.915 67.665-72.915 119.732 0 74.358 60.416 134.774 134.774 134.774s134.772-60.416 134.772-134.774-60.414-134.773-134.772-134.773z"
            paintOrder="markers stroke fill"
            stopColor="#000"
          ></path>
        </g>
      </svg>
