<?xml version="1.0" encoding="UTF-8" standalone="no"?>
  <svg
      xmlns="http://www.w3.org/2000/svg"
      xmlnsXlink="http://www.w3.org/1999/xlink"
      width="155.276"
      height="247.486"
      version="1.1"
      viewBox="0 0 155.276 247.486"
    >
      <g display="none" transform="translate(-853.54 -418.709)">
        <path
          fill="#fff"
          strokeLinejoin="round"
          strokeWidth="15.9"
          d="M0 0H1920V1080H0z"
        ></path>
      </g>
      <g display="none" transform="translate(-853.54 -418.709)">
        <image
          width="400"
          height="300"
          x="731.429"
          y="392.857"
          fill="#fff"
          display="inline"
          opacity="1"
          preserveAspectRatio="none"
        ></image>
      </g>
      <g
        stroke="none"
        display="inline"
        opacity="1"
        transform="translate(-853.54 -418.709)"
      >
        <g
          fillOpacity="1"
          strokeLinecap="butt"
          strokeLinejoin="miter"
          strokeOpacity="1"
          strokeWidth="1"
          display="inline"
          opacity="1"
        >
          <path
            fill="#ece8e5"
            d="M880.727 418.709s-6.162 37.518-12.627 54.8c-8.013 21.42-13.86 38.491-14.522 58.337-.747 22.428 9.461 45.347 21.393 64.248 5.956 9.436 7.486 20.69 9.418 31.717 3.35 19.126-10.354 38.384-10.354 38.384s20.468-12.033 30.557-38.132c10.567-27.338.066-69.792.066-69.792l26.52-17.824 26.52 17.824s-10.502 42.454.066 69.792c10.089 26.1 30.556 38.132 30.556 38.132s-13.703-19.258-10.353-38.384c1.931-11.026 3.461-22.281 9.418-31.717 11.931-18.9 22.14-41.82 21.392-64.248-.66-19.846-6.509-36.917-14.521-58.336-6.465-17.283-12.627-54.801-12.627-54.801s-14.42 13.572-24.654 18.371c-7.18 3.367-25.797 7.135-25.797 7.135s-18.618-3.768-25.797-7.135c-10.234-4.8-24.654-18.371-24.654-18.371z"
            opacity="1"
          ></path>
          <path
            fill="#527786"
            d="M880.727 418.709s-1.796 10.812-4.43 23.46c1.365 1.566 2.704 3.423 3.793 5.599 3.92 7.833 5.133 11.697 5.133 11.697s.514-8.88.937-13.572c.298-3.304 1.21-9.63 1.21-9.63s5.398 3.845 9.089 5.721c3.885 1.976 12.201 4.534 12.201 4.534s-3.034-3.482-6.07-7.41c-1.571-2.034-2.883-4.206-3.803-5.856-8.9-5.93-18.06-14.543-18.06-14.543zm100.902 0s-9.004 8.467-17.832 14.39c-.922 1.669-2.257 3.9-3.887 6.008-3.036 3.929-6.07 7.41-6.07 7.41s8.316-2.557 12.201-4.533c3.691-1.876 9.09-5.72 9.09-5.72s.91 6.325 1.209 9.629c.423 4.693.937 13.572.937 13.572s1.212-3.864 5.133-11.697c1.058-2.114 2.352-3.928 3.676-5.465-2.65-12.706-4.457-23.594-4.457-23.594zm-108.942 39.383c-1.455 5.781-3.011 11.204-4.587 15.418l-.006.015c2.096 1.512 4.415 3.285 5.879 4.735 2.212 2.192 6.562 7.052 6.562 7.052s-1.735-10.322-3.393-15.134c-1.385-4.023-3.42-9.377-4.455-12.086zm117.04.226c-1.081 2.832-3.022 7.948-4.37 11.86-1.657 4.812-3.392 15.134-3.392 15.134s4.35-4.86 6.562-7.052c1.437-1.424 3.698-3.159 5.764-4.653l-.035-.097c-1.555-4.158-3.09-9.496-4.53-15.192zm-127.018 30.084c-3.598 10.462-6.377 20.197-7.896 30.246 3.72.659 8.881 2.338 15.181 6.38a40424.82 40424.82 0 0127.527 17.677l3.788-21.088c-3.03-1.768-22.603-18.56-28.538-23.611-2.846-2.422-6.752-6.257-10.062-9.604zm136.975.108c-3.288 3.321-7.14 7.1-9.955 9.496-5.935 5.05-25.507 21.843-28.538 23.611l3.788 21.088s14.142-9.091 27.527-17.678c6.22-3.99 11.332-5.677 15.04-6.353-1.512-10.024-4.278-19.733-7.862-30.164zm-145.63 54.355c1.81 15.704 8.234 31.282 16.12 45.205l2.326-14.32s10.893 4.285 18.75 9.643c4.685 3.194 12.364 9.51 18.049 14.287 0-8.1-.717-15.862-1.588-22.368-4.624-4.628-12.436-11.363-23.783-17.634-11.354-6.274-22.297-11.424-29.873-14.813zm154.239.069c-7.572 3.39-18.444 8.512-29.72 14.744-11.493 6.35-19.352 13.172-23.952 17.804-.865 6.505-1.57 14.246-1.564 22.319 5.694-4.786 13.466-11.185 18.193-14.408 7.857-5.358 18.75-9.643 18.75-9.643l2.293 14.12c7.823-13.853 14.189-29.33 16-44.936zm-121.82 57.2s.135 1.34-1.65 6.876c-.692 2.143-1.919 4.403-3.163 6.38 1.095 4.74 1.884 9.598 2.729 14.42 3.35 19.127-10.354 38.385-10.354 38.385s20.468-12.033 30.557-38.132c1.064-2.752 1.905-5.661 2.574-8.66-2.48-2.858-5.215-5.899-7.434-8.063-5.433-5.3-13.26-11.205-13.26-11.205zm89.554 0s-7.826 5.907-13.26 11.206c-2.254 2.199-5.04 5.301-7.55 8.197.664 2.952 1.499 5.815 2.547 8.526 10.089 26.1 30.556 38.132 30.556 38.132s-13.703-19.258-10.353-38.384c.854-4.879 1.65-9.794 2.765-14.584-1.206-1.937-2.383-4.136-3.054-6.217-1.786-5.536-1.65-6.875-1.65-6.875z"
            opacity="1"
          ></path>
        </g>
        <path
          fill="#db7b40"
          fillOpacity="1"
          strokeLinecap="square"
          d="M931.178 474.543c-5.297.57-9.612 2.24-13.569 3.45-3.667.25-6.723.738-9.293 2.208-2.57 1.47-4.572 3.914-6.533 5.824-1.994 1.944-4.401 3.613-5.635 6.013s-2.1 8.528-2.1 8.528-2.332 7.07-2.652 11.211c-.319 4.142-.374 8.657-.226 13.565.489 16.233 9.197 30.395 18.701 38.726 10.356 9.078 8.283 15.277 21.307 15.803 13.023-.526 10.95-6.725 21.306-15.803 9.505-8.33 18.213-22.493 18.702-38.726.091-3.05.105-5.95.025-8.702-.048-1.675-.07-8.949-.172-10.517-.264-4.07-1.149-2.759-2.732-5.557-.352-3.13-.928-6.033-2.162-8.434-1.234-2.4-3.578-4.163-5.573-6.107-1.96-1.91-3.963-4.354-6.533-5.824-2.57-1.47-5.494-1.949-9.293-2.209-3.957-1.208-8.272-2.88-13.568-3.449z"
          display="inline"
          opacity="1"
          paintOrder="markers stroke fill"
          stopColor="#000"
        ></path>
        <path
          fill="#fff"
          strokeLinecap="butt"
          strokeLinejoin="miter"
          strokeOpacity="1"
          strokeWidth="1"
          d="M921.26 479.443l4.039 7.703-5.555 5.81 5.809 8.333-3.535 9.09s-8.84-4.923-12.754-6.186c-3.915-1.262-13.006-.254-13.006-.254l-3.787 7.704.377 6.566 2.779-6.566s8.207-.884 15.783-.631c7.576.252 13.889 7.322 13.889 7.322l3.916-18.436-4.672-6.564 4.672-4.926-3.537-7.576zm19.57 0l-4.418 1.389-3.537 7.576 4.672 4.926-4.672 6.564 3.916 18.436s6.313-7.07 13.889-7.322c7.576-.253 15.783.63 15.783.63l2.78 6.567.378-6.566-3.789-7.704s-9.091-1.008-13.006.254c-3.914 1.263-12.754 6.186-12.754 6.186l-3.535-9.09 5.809-8.334-5.555-5.809zm-25.885 3.032l-6.945 6.44 3.79 6.312 6.439-6.44zm32.578 0l-3.283 6.312 6.44 6.44 3.789-6.313zm-49.84 48.203s-1.147 3.316.973 7.86c2.031 4.352 4.8 6.06 4.8 6.06s-1.894-.125-3.157-.504c-1.263-.38-2.778-1.389-2.778-1.389s1.17 4.042 4.797 9.344c3.812 5.57 7.198 6.945 7.198 6.945s-.682-3.262-.504-9.47c.126-4.42 2.904-6.315 2.904-6.315l-5.809-4.166c-7.233-5.19-8.423-8.365-8.423-8.365zm66.829 0s-1.189 3.176-8.422 8.365l-5.809 4.166s2.778 1.895 2.905 6.314c.177 6.21-.506 9.471-.506 9.471s3.385-1.374 7.197-6.945c3.628-5.302 4.799-9.344 4.799-9.344s-1.515 1.01-2.778 1.389c-1.262.379-3.158.504-3.158.504s2.768-1.708 4.8-6.06c2.12-4.544.972-7.86.972-7.86z"
          display="inline"
          opacity="1"
        ></path>
        <g
          fillOpacity="1"
          strokeLinecap="butt"
          strokeLinejoin="miter"
          strokeOpacity="1"
          strokeWidth="1"
        >
          <g>
            <path
              fill="#a59c63"
              d="M907.645 438.012c2.223 2.663 5.476 6.217 8.628 8.318 5.477 3.65 13.366 7.832 13.366 7.832l-.766 1.707 1.547 1.295v1.238l-1.826 1.707 2.164 2.135-.02.684c-1.03.64-4.738 3.063-7.51 6.54-3.22 4.041-5.619 8.524-5.619 8.524s3.978.44 8.334 2.84c4.249 2.34 5.184 2.866 5.235 2.895.05-.029.986-.555 5.234-2.895 4.356-2.4 8.334-2.84 8.334-2.84s-2.4-4.483-5.619-8.523c-2.772-3.478-6.48-5.9-7.51-6.541l-.02-.684 2.165-2.135-1.826-1.707v-1.238l1.546-1.295-.765-1.707s7.889-4.181 13.365-7.832c3.152-2.101 6.405-5.655 8.629-8.318-2.014.76-4.459 1.51-7.004 2.226-1.397 1.35-3.521 3.26-6.453 5.504-5.77 4.416-10.076 6.418-10.076 6.418s-4.306-2.002-10.076-6.418c-2.932-2.244-5.056-4.153-6.454-5.504-2.545-.715-4.99-1.466-7.003-2.226z"
              display="inline"
              opacity="1"
            ></path>
            <path
              fill="#6c6626"
              d="M930.846 474.455c-5.768.06-13.237 3.537-13.237 3.537s3.978.44 8.334 2.84c4.249 2.34 5.184 2.866 5.235 2.895.05-.029.986-.555 5.234-2.895 4.356-2.4 8.334-2.84 8.334-2.84s-8.018-3.599-13.9-3.537z"
              display="inline"
              opacity="1"
            ></path>
            <path
              fill="#cfc6a2"
              d="M931.178 462.65s-.855 3.11-1.594 5.606a59.49 59.49 0 01-1.725 4.908s-2.725 1.22-3.986 1.775c-1.261.556-6.264 3.053-6.264 3.053s3.708-.983 6.1-1.285c2.253-.284 4.469-.195 4.469-.195s.356-.152 1.785 3.062c1.022 2.3 1.194 3.402 1.215 3.862.02-.46.193-1.563 1.215-3.862 1.428-3.214 1.785-3.062 1.785-3.062s2.216-.09 4.468.195c2.392.302 6.1 1.285 6.1 1.285s-5.002-2.497-6.264-3.053c-1.261-.555-3.986-1.775-3.986-1.775s-.986-2.412-1.725-4.908a358.466 358.466 0 01-1.593-5.606zm0 20.786c-.008.183 0 .29 0 .29s.008-.107 0-.29z"
              display="inline"
              opacity="1"
            ></path>
          </g>
          <g display="inline" opacity="1">
            <path
              fill="#a69c60"
              d="M959.269 468.1l-14.523 9.892s7.137 1.5 9.527 3.085c2.39 1.586 6.3 4.948 6.3 4.948 0 .004.722-4.879.59-8.682-.11-3.146-1.88-9.258-1.894-9.243z"
            ></path>
            <path
              fill="#6c6627"
              d="M953.027 478.074c-3.463-.398-8.28-.082-8.28-.082s7.136 1.5 9.525 3.086c2.39 1.586 6.3 4.947 6.3 4.947s-2.26-5.958-4.76-7.276c-.626-.33-1.63-.542-2.785-.675z"
            ></path>
            <path
              fill="#cec69d"
              d="M944.746 477.992l11.066.757 4.76 7.276-3.373-7.97 2.07-9.955-3.418 9.203z"
            ></path>
            <path
              fill="#a79c5f"
              d="M960.573 486.025s3.898-.08 6.417-.566c2.519-.486 5.7-1.635 5.7-1.635s.664 4.64-.198 8.198c-.862 3.558-4.185 8.543-4.185 8.543s-1.136-4.997-2.837-7.715c-1.702-2.718-4.897-6.825-4.897-6.825z"
              opacity="1"
            ></path>
            <path
              fill="#6c6527"
              d="M960.572 486.024s3.197 4.109 4.899 6.827c1.701 2.718 2.836 7.714 2.836 7.714l-.088-8.253z"
            ></path>
            <path
              fill="#cec69d"
              d="M960.573 486.025l8.27 4.787 3.848-6.988-2.722 8.144-1.662 8.597-.291-7.996z"
            ></path>
            <path
              fill="#a69c5f"
              d="M968.307 500.565s1.343 1.282 6.093 1.75c4.75.47 6.16-.287 6.16-.287s-2.733 4.731-4.576 7.45c-1.844 2.719-4.772 7.18-4.772 7.18s-.252-4.025-1.002-8.275-1.903-7.818-1.903-7.818z"
              opacity="1"
            ></path>
            <path
              fill="#6c6527"
              d="M968.307 500.565s1.152 3.569 1.902 7.819 1.003 8.273 1.003 8.273l1.634-8.07z"
            ></path>
            <path
              fill="#cec69d"
              d="M968.307 500.565l4.981 6.563 7.272-5.1-6.564 7.045-2.784 7.585 1.082-7.983-3.987-8.11"
            ></path>
            <path
              fill="#a69c60"
              d="M903.087 468.1l14.522 9.892s-7.137 1.5-9.526 3.085c-2.39 1.586-6.3 4.948-6.3 4.948 0 .004-.722-4.879-.59-8.682.11-3.146 1.88-9.258 1.894-9.243z"
            ></path>
            <path
              fill="#6c6627"
              d="M909.328 478.074c3.464-.398 8.281-.082 8.281-.082s-7.136 1.5-9.526 3.086c-2.39 1.586-6.3 4.947-6.3 4.947s2.26-5.958 4.761-7.276c.625-.33 1.63-.542 2.784-.675z"
            ></path>
            <path
              fill="#cec69d"
              d="M917.61 477.992l-11.066.757-4.761 7.276 3.374-7.97-2.07-9.955 3.418 9.203z"
            ></path>
            <path
              fill="#a69c60"
              d="M901.783 486.025s-3.898-.08-6.417-.566c-2.52-.486-5.701-1.635-5.701-1.635s-.663 4.64.199 8.198c.862 3.558 4.185 8.543 4.185 8.543s1.135-4.997 2.837-7.715c1.701-2.718 4.897-6.825 4.897-6.825z"
              opacity="1"
            ></path>
            <path
              fill="#6c6627"
              d="M901.783 486.024s-3.197 4.109-4.898 6.827c-1.702 2.718-2.836 7.714-2.836 7.714l.088-8.253z"
            ></path>
            <path
              fill="#cec69d"
              d="M901.783 486.025l-8.271 4.787-3.847-6.988 2.722 8.144 1.662 8.597.29-7.996z"
            ></path>
            <path
              fill="#a69c60"
              d="M894.049 500.565s-1.344 1.282-6.094 1.75c-4.75.47-6.16-.287-6.16-.287s2.733 4.731 4.577 7.45a739.233 739.233 0 014.772 7.18s.252-4.025 1.002-8.275 1.903-7.818 1.903-7.818z"
              opacity="1"
            ></path>
            <path
              fill="#6c6627"
              d="M894.049 500.565s-1.152 3.569-1.902 7.819-1.003 8.273-1.003 8.273l-1.634-8.07z"
            ></path>
            <path
              fill="#cec69d"
              d="M894.049 500.565l-4.982 6.563-7.272-5.1 6.565 7.045 2.784 7.585-1.082-7.983 3.987-8.11"
            ></path>
          </g>
        </g>
      </g>
    </svg>